<svg xmlns="http://www.w3.org/2000/svg" xmlns:xlink="http://www.w3.org/1999/xlink" width="5000" zoomAndPan="magnify" viewBox="0 0 3750 374.999991" height="500" preserveAspectRatio="xMidYMid meet" version="1.0"><defs><g/><clipPath id="f118aa1d0c"><path d="M 1959.238281 159.695312 L 1968.132812 159.695312 L 1968.132812 168.71875 L 1959.238281 168.71875 Z M 1959.238281 159.695312 " clip-rule="nonzero"/></clipPath><clipPath id="068de9a5a9"><path d="M 1863 89.8125 L 1873 89.8125 L 1873 99 L 1863 99 Z M 1863 89.8125 " clip-rule="nonzero"/></clipPath><clipPath id="92c159dd32"><path d="M 1924.828125 218.472656 L 1938.683594 218.472656 L 1938.683594 232.210938 L 1924.828125 232.210938 Z M 1924.828125 218.472656 " clip-rule="nonzero"/></clipPath><clipPath id="e9830c5909"><path d="M 1781.804688 141 L 1796 141 L 1796 156 L 1781.804688 156 Z M 1781.804688 141 " clip-rule="nonzero"/></clipPath></defs><path fill="#ffffff" d="M 1929.375 166.191406 C 1929.375 168.632812 1927.398438 170.613281 1924.960938 170.613281 C 1922.523438 170.613281 1920.546875 168.632812 1920.546875 166.191406 C 1920.546875 163.75 1922.523438 161.769531 1924.960938 161.769531 C 1927.398438 161.769531 1929.375 163.75 1929.375 166.191406 " fill-opacity="1" fill-rule="nonzero"/><path fill="#ffffff" d="M 1915.699219 121.464844 C 1915.699219 123.910156 1913.722656 125.886719 1911.285156 125.886719 C 1908.847656 125.886719 1906.875 123.910156 1906.875 121.464844 C 1906.875 119.023438 1908.847656 117.042969 1911.285156 117.042969 C 1913.722656 117.042969 1915.699219 119.023438 1915.699219 121.464844 " fill-opacity="1" fill-rule="nonzero"/><path fill="#ffffff" d="M 1945.9375 110.367188 C 1945.9375 112.808594 1943.960938 114.785156 1941.523438 114.785156 C 1939.089844 114.785156 1937.113281 112.808594 1937.113281 110.367188 C 1937.113281 107.921875 1939.089844 105.945312 1941.523438 105.945312 C 1943.960938 105.945312 1945.9375 107.921875 1945.9375 110.367188 " fill-opacity="1" fill-rule="nonzero"/><g clip-path="url(#f118aa1d0c)"><path fill="#ffffff" d="M 1968.132812 164.199219 C 1968.132812 166.640625 1966.15625 168.621094 1963.71875 168.621094 C 1961.28125 168.621094 1959.308594 166.640625 1959.308594 164.199219 C 1959.308594 161.757812 1961.28125 159.777344 1963.71875 159.777344 C 1966.15625 159.777344 1968.132812 161.757812 1968.132812 164.199219 " fill-opacity="1" fill-rule="nonzero"/></g><path fill="#ffffff" d="M 1962.632812 125.886719 C 1962.632812 128.328125 1960.65625 130.308594 1958.21875 130.308594 C 1955.78125 130.308594 1953.808594 128.328125 1953.808594 125.886719 C 1953.808594 123.445312 1955.78125 121.464844 1958.21875 121.464844 C 1960.65625 121.464844 1962.632812 123.445312 1962.632812 125.886719 " fill-opacity="1" fill-rule="nonzero"/><path fill="#ffffff" d="M 1933.648438 203.878906 C 1933.648438 206.320312 1931.671875 208.296875 1929.234375 208.296875 C 1926.796875 208.296875 1924.820312 206.320312 1924.820312 203.878906 C 1924.820312 201.433594 1926.796875 199.457031 1929.234375 199.457031 C 1931.671875 199.457031 1933.648438 201.433594 1933.648438 203.878906 " fill-opacity="1" fill-rule="nonzero"/><path fill="#ffffff" d="M 1962.632812 195.941406 C 1962.632812 198.382812 1960.65625 200.363281 1958.21875 200.363281 C 1955.78125 200.363281 1953.808594 198.382812 1953.808594 195.941406 C 1953.808594 193.5 1955.78125 191.519531 1958.21875 191.519531 C 1960.65625 191.519531 1962.632812 193.5 1962.632812 195.941406 " fill-opacity="1" fill-rule="nonzero"/><path fill="#ffffff" d="M 1855.464844 161.769531 C 1855.464844 164.210938 1853.492188 166.191406 1851.054688 166.191406 C 1848.617188 166.191406 1846.640625 164.210938 1846.640625 161.769531 C 1846.640625 159.328125 1848.617188 157.347656 1851.054688 157.347656 C 1853.492188 157.347656 1855.464844 159.328125 1855.464844 161.769531 " fill-opacity="1" fill-rule="nonzero"/><path fill="#ffffff" d="M 1907.074219 142.832031 C 1907.074219 145.273438 1905.097656 147.253906 1902.660156 147.253906 C 1900.222656 147.253906 1898.25 145.273438 1898.25 142.832031 C 1898.25 140.390625 1900.222656 138.410156 1902.660156 138.410156 C 1905.097656 138.410156 1907.074219 140.390625 1907.074219 142.832031 " fill-opacity="1" fill-rule="nonzero"/><path fill="#ffffff" d="M 1878.984375 176.347656 C 1878.984375 178.789062 1877.007812 180.765625 1874.570312 180.765625 C 1872.132812 180.765625 1870.15625 178.789062 1870.15625 176.347656 C 1870.15625 173.902344 1872.132812 171.925781 1874.570312 171.925781 C 1877.007812 171.925781 1878.984375 173.902344 1878.984375 176.347656 " fill-opacity="1" fill-rule="nonzero"/><path fill="#ffffff" d="M 1810.753906 117.042969 C 1810.753906 119.488281 1808.777344 121.464844 1806.339844 121.464844 C 1803.902344 121.464844 1801.925781 119.488281 1801.925781 117.042969 C 1801.925781 114.601562 1803.902344 112.625 1806.339844 112.625 C 1808.777344 112.625 1810.753906 114.601562 1810.753906 117.042969 " fill-opacity="1" fill-rule="nonzero"/><path fill="#ffffff" d="M 1804.371094 167.867188 C 1804.371094 170.3125 1802.394531 172.289062 1799.957031 172.289062 C 1797.523438 172.289062 1795.546875 170.3125 1795.546875 167.867188 C 1795.546875 165.425781 1797.523438 163.449219 1799.957031 163.449219 C 1802.394531 163.449219 1804.371094 165.425781 1804.371094 167.867188 " fill-opacity="1" fill-rule="nonzero"/><path fill="#ffffff" d="M 1827.238281 184.824219 C 1827.238281 187.265625 1825.265625 189.242188 1822.828125 189.242188 C 1820.390625 189.242188 1818.414062 187.265625 1818.414062 184.824219 C 1818.414062 182.382812 1820.390625 180.402344 1822.828125 180.402344 C 1825.265625 180.402344 1827.238281 182.382812 1827.238281 184.824219 " fill-opacity="1" fill-rule="nonzero"/><g clip-path="url(#068de9a5a9)"><path fill="#ffffff" d="M 1872.144531 94.234375 C 1872.144531 96.675781 1870.171875 98.652344 1867.730469 98.652344 C 1865.296875 98.652344 1863.320312 96.675781 1863.320312 94.234375 C 1863.320312 91.789062 1865.296875 89.8125 1867.730469 89.8125 C 1870.171875 89.8125 1872.144531 91.789062 1872.144531 94.234375 " fill-opacity="1" fill-rule="nonzero"/></g><path fill="#ffffff" d="M 1893.835938 103.074219 C 1893.835938 105.515625 1891.859375 107.496094 1889.421875 107.496094 C 1886.988281 107.496094 1885.011719 105.515625 1885.011719 103.074219 C 1885.011719 100.632812 1886.988281 98.652344 1889.421875 98.652344 C 1891.859375 98.652344 1893.835938 100.632812 1893.835938 103.074219 " fill-opacity="1" fill-rule="nonzero"/><path fill="#ffffff" d="M 1851.054688 127.839844 C 1851.054688 130.28125 1849.078125 132.261719 1846.640625 132.261719 C 1844.203125 132.261719 1842.226562 130.28125 1842.226562 127.839844 C 1842.226562 125.398438 1844.203125 123.417969 1846.640625 123.417969 C 1849.078125 123.417969 1851.054688 125.398438 1851.054688 127.839844 " fill-opacity="1" fill-rule="nonzero"/><path fill="#ffffff" d="M 1868.367188 97.527344 L 1863.8125 115.972656 L 1876.46875 108.796875 Z M 1848.625 127.820312 L 1851.566406 153.820312 L 1859.515625 121.644531 Z M 1852.828125 160.453125 L 1884.667969 162.109375 L 1900.878906 142.765625 L 1878.121094 111.101562 L 1862.882812 119.738281 Z M 1913.027344 122.339844 L 1925.539062 162.738281 L 1956.308594 125.976562 L 1942.171875 111.988281 Z M 1807.535156 118.789062 L 1801.8125 163.550781 L 1844.101562 127.761719 Z M 1888.183594 162.292969 L 1923.019531 164.109375 L 1910.066406 122.28125 L 1889.265625 104.78125 L 1880.585938 109.703125 L 1904.441406 142.898438 Z M 1851.546875 163.207031 L 1829.355469 182.597656 L 1873.824219 175.042969 L 1882.398438 164.816406 Z M 1876.792969 175.886719 L 1929.386719 202.375 L 1956.953125 194.828125 L 1961.007812 165.671875 L 1926.847656 166.960938 L 1926.902344 167.132812 L 1924.949219 167.03125 L 1921.847656 167.148438 L 1922.070312 166.882812 L 1885.917969 165 Z M 1929.085938 205.378906 L 1874.351562 177.8125 L 1819.980469 187.046875 L 1849.574219 161.195312 L 1846.019531 129.828125 L 1798.105469 170.378906 L 1805.144531 115.300781 L 1846.761719 125.511719 L 1848.222656 124.273438 L 1848.277344 124.777344 L 1860.441406 117.882812 L 1867.097656 90.9375 L 1878.929688 107.402344 L 1889.582031 101.367188 L 1911.574219 119.867188 L 1942.894531 108.742188 L 1960.128906 125.796875 L 1928.074219 164.09375 L 1964.257812 162.730469 L 1959.484375 197.054688 L 1929.085938 205.378906 " fill-opacity="1" fill-rule="nonzero"/><path fill="#ffffff" d="M 1927.839844 204.035156 L 1923.5625 166.351562 L 1926.359375 166.03125 L 1930.632812 203.71875 L 1927.839844 204.035156 " fill-opacity="1" fill-rule="nonzero"/><path fill="#ffffff" d="M 1821.992188 185.957031 L 1799.121094 169 L 1800.796875 166.734375 L 1823.664062 183.691406 L 1821.992188 185.957031 " fill-opacity="1" fill-rule="nonzero"/><path fill="#006dff" d="M 1967.484375 144.503906 C 1967.484375 148.285156 1964.421875 151.355469 1960.644531 151.355469 C 1956.867188 151.355469 1953.808594 148.285156 1953.808594 144.503906 C 1953.808594 140.71875 1956.867188 137.652344 1960.644531 137.652344 C 1964.421875 137.652344 1967.484375 140.71875 1967.484375 144.503906 " fill-opacity="1" fill-rule="nonzero"/><path fill="#006dff" d="M 1918.125 101.082031 C 1918.125 104.867188 1915.0625 107.933594 1911.285156 107.933594 C 1907.507812 107.933594 1904.449219 104.867188 1904.449219 101.082031 C 1904.449219 97.300781 1907.507812 94.234375 1911.285156 94.234375 C 1915.0625 94.234375 1918.125 97.300781 1918.125 101.082031 " fill-opacity="1" fill-rule="nonzero"/><path fill="#006dff" d="M 1956.207031 182.390625 C 1956.207031 186.175781 1953.148438 189.242188 1949.371094 189.242188 C 1945.59375 189.242188 1942.53125 186.175781 1942.53125 182.390625 C 1942.53125 178.609375 1945.59375 175.542969 1949.371094 175.542969 C 1953.148438 175.542969 1956.207031 178.609375 1956.207031 182.390625 " fill-opacity="1" fill-rule="nonzero"/><path fill="#006dff" d="M 1915.0625 199.457031 C 1915.0625 203.242188 1912 206.308594 1908.226562 206.308594 C 1904.449219 206.308594 1901.386719 203.242188 1901.386719 199.457031 C 1901.386719 195.675781 1904.449219 192.605469 1908.226562 192.605469 C 1912 192.605469 1915.0625 195.675781 1915.0625 199.457031 " fill-opacity="1" fill-rule="nonzero"/><g clip-path="url(#92c159dd32)"><path fill="#006dff" d="M 1938.636719 225.359375 C 1938.636719 229.144531 1935.574219 232.210938 1931.796875 232.210938 C 1928.023438 232.210938 1924.960938 229.144531 1924.960938 225.359375 C 1924.960938 221.578125 1928.023438 218.507812 1931.796875 218.507812 C 1935.574219 218.507812 1938.636719 221.578125 1938.636719 225.359375 " fill-opacity="1" fill-rule="nonzero"/></g><path fill="#006dff" d="M 1881.40625 126.65625 C 1881.40625 130.4375 1878.347656 133.507812 1874.570312 133.507812 C 1870.792969 133.507812 1867.730469 130.4375 1867.730469 126.65625 C 1867.730469 122.871094 1870.792969 119.800781 1874.570312 119.800781 C 1878.347656 119.800781 1881.40625 122.871094 1881.40625 126.65625 " fill-opacity="1" fill-rule="nonzero"/><path fill="#006dff" d="M 1885.875 157.347656 C 1885.875 161.132812 1882.816406 164.199219 1879.039062 164.199219 C 1875.261719 164.199219 1872.199219 161.132812 1872.199219 157.347656 C 1872.199219 153.566406 1875.261719 150.5 1879.039062 150.5 C 1882.816406 150.5 1885.875 153.566406 1885.875 157.347656 " fill-opacity="1" fill-rule="nonzero"/><path fill="#006dff" d="M 1852.019531 182.390625 C 1852.019531 186.175781 1848.957031 189.242188 1845.179688 189.242188 C 1841.402344 189.242188 1838.34375 186.175781 1838.34375 182.390625 C 1838.34375 178.609375 1841.402344 175.542969 1845.179688 175.542969 C 1848.957031 175.542969 1852.019531 178.609375 1852.019531 182.390625 " fill-opacity="1" fill-rule="nonzero"/><path fill="#006dff" d="M 1838.34375 139.40625 C 1838.34375 143.191406 1835.28125 146.257812 1831.503906 146.257812 C 1827.726562 146.257812 1824.667969 143.191406 1824.667969 139.40625 C 1824.667969 135.621094 1827.726562 132.554688 1831.503906 132.554688 C 1835.28125 132.554688 1838.34375 135.621094 1838.34375 139.40625 " fill-opacity="1" fill-rule="nonzero"/><path fill="#006dff" d="M 1842.753906 105.503906 C 1842.753906 109.289062 1839.695312 112.355469 1835.917969 112.355469 C 1832.140625 112.355469 1829.078125 109.289062 1829.078125 105.503906 C 1829.078125 101.722656 1832.140625 98.652344 1835.917969 98.652344 C 1839.695312 98.652344 1842.753906 101.722656 1842.753906 105.503906 " fill-opacity="1" fill-rule="nonzero"/><g clip-path="url(#e9830c5909)"><path fill="#006dff" d="M 1795.546875 148.203125 C 1795.546875 151.988281 1792.484375 155.054688 1788.707031 155.054688 C 1784.933594 155.054688 1781.871094 151.988281 1781.871094 148.203125 C 1781.871094 144.417969 1784.933594 141.351562 1788.707031 141.351562 C 1792.484375 141.351562 1795.546875 144.417969 1795.546875 148.203125 " fill-opacity="1" fill-rule="nonzero"/></g><path fill="#006dff" d="M 1791.1875 149.605469 L 1790.453125 146.058594 L 1829.878906 137.894531 L 1834.464844 102.648438 L 1874.457031 124.527344 L 1910.253906 99.597656 L 1912.316406 102.570312 L 1874.683594 128.78125 L 1837.371094 108.363281 L 1833.132812 140.917969 L 1791.1875 149.605469 " fill-opacity="1" fill-rule="nonzero"/><path fill="#006dff" d="M 1792.058594 149.15625 L 1789.585938 146.511719 L 1834.683594 104.183594 L 1837.152344 106.828125 L 1792.058594 149.15625 " fill-opacity="1" fill-rule="nonzero"/><path fill="#006dff" d="M 1876.464844 158.382812 L 1830.902344 142.265625 L 1832.105469 138.847656 L 1877.667969 154.964844 L 1876.464844 158.382812 " fill-opacity="1" fill-rule="nonzero"/><path fill="#006dff" d="M 1846.273438 183.835938 L 1844.085938 180.949219 L 1877.945312 155.230469 L 1880.132812 158.117188 L 1846.273438 183.835938 " fill-opacity="1" fill-rule="nonzero"/><path fill="#006dff" d="M 1907.566406 201.726562 L 1879.90625 160.457031 L 1882.910156 158.4375 L 1908.882812 197.191406 L 1948.648438 179.792969 L 1950.09375 183.113281 L 1907.566406 201.726562 " fill-opacity="1" fill-rule="nonzero"/><path fill="#006dff" d="M 1949.875 184.957031 L 1946.445312 183.808594 L 1958.019531 149.023438 L 1879.269531 159.148438 L 1878.808594 155.550781 L 1963.269531 144.695312 L 1949.875 184.957031 " fill-opacity="1" fill-rule="nonzero"/><path fill="#006dff" d="M 1960.300781 146.28125 L 1874.226562 129.617188 L 1874.914062 126.058594 L 1960.988281 142.726562 L 1960.300781 146.28125 " fill-opacity="1" fill-rule="nonzero"/><path fill="#006dff" d="M 1959.453125 145.863281 L 1910.09375 102.445312 L 1912.476562 99.722656 L 1961.835938 143.140625 L 1959.453125 145.863281 " fill-opacity="1" fill-rule="nonzero"/><path fill="#006dff" d="M 1878.976562 156.871094 C 1877.417969 156.871094 1877.183594 155.261719 1877.011719 154.070312 C 1876.898438 153.304688 1876.753906 152.179688 1876.574219 150.734375 C 1876.273438 148.308594 1875.875 144.929688 1875.394531 140.6875 C 1874.574219 133.46875 1873.78125 126.15625 1873.777344 126.082031 L 1877.371094 125.691406 C 1878.496094 136.09375 1880.40625 153.117188 1880.75 154.503906 C 1880.609375 153.941406 1879.914062 153.15625 1878.871094 153.25 L 1879.203125 156.859375 C 1879.125 156.867188 1879.050781 156.871094 1878.976562 156.871094 " fill-opacity="1" fill-rule="nonzero"/><path fill="#006dff" d="M 1843.464844 182.96875 L 1830.816406 145.078125 L 1834.246094 143.929688 L 1846.894531 181.816406 L 1843.464844 182.96875 " fill-opacity="1" fill-rule="nonzero"/><path fill="#006dff" d="M 1906.898438 200.414062 L 1844.46875 184.433594 L 1787.765625 149.75 L 1789.648438 146.65625 L 1845.890625 181.058594 L 1907.796875 196.902344 L 1906.898438 200.414062 " fill-opacity="1" fill-rule="nonzero"/><path fill="#006dff" d="M 1932.398438 228.792969 L 1908.523438 201.558594 L 1911.242188 199.167969 L 1931.199219 221.929688 L 1946.902344 181.730469 L 1950.273438 183.054688 L 1932.398438 228.792969 " fill-opacity="1" fill-rule="nonzero"/><path stroke-linecap="butt" transform="matrix(0.75, 0, 0, 0.75, 1780.678632, 227.437149)" fill="none" stroke-linejoin="miter" d="M 41.730577 62.000472 L 38.069118 62.000472 L 16.52745 26.422345 L 16.52745 59.115055 L 21.8712 59.115055 C 23.110784 59.115055 23.730575 59.578597 23.730575 60.50568 C 23.730575 61.500472 23.110784 62.000472 21.8712 62.000472 L 11.251408 62.000472 C 9.975366 62.000472 9.334741 61.500472 9.334741 60.50568 C 9.334741 59.578597 9.975366 59.115055 11.251408 59.115055 L 13.65245 59.115055 L 13.65245 25.167136 L 9.876408 25.167136 C 8.589949 25.167136 7.944116 24.667136 7.944116 23.672344 C 7.944116 22.745261 8.589949 22.281719 9.876408 22.281719 L 17.303492 22.281719 L 38.84516 57.854638 L 38.84516 25.167136 L 33.631618 25.167136 C 32.303493 25.167136 31.642034 24.667136 31.642034 23.672344 C 31.642034 22.745261 32.303493 22.281719 33.631618 22.281719 L 44.121202 22.281719 C 45.397244 22.281719 46.037869 22.745261 46.037869 23.672344 C 46.037869 24.667136 45.397244 25.167136 44.121202 25.167136 L 41.730577 25.167136 Z M 82.397246 47.969221 L 53.001411 47.969221 C 53.522244 51.641096 55.079536 54.609846 57.673286 56.875472 C 60.272245 59.13068 63.47537 60.25568 67.282662 60.25568 C 69.480578 60.25568 71.735787 59.901514 74.048287 59.187972 C 76.371204 58.464013 78.230579 57.542138 79.631621 56.422347 C 80.069121 56.09943 80.428496 55.937972 80.714954 55.937972 C 81.074329 55.937972 81.392038 56.06818 81.662871 56.333805 C 81.949329 56.594222 82.089954 56.927555 82.089954 57.328597 C 82.089954 58.557763 80.407663 59.839014 77.053496 61.167139 C 73.69412 62.484847 70.41287 63.141097 67.209745 63.141097 C 62.454536 63.141097 58.418078 61.557764 55.095161 58.38068 C 51.777452 55.198388 50.115994 51.307763 50.115994 46.708804 C 50.115994 42.464012 51.662869 38.880679 54.761828 35.958804 C 57.865994 33.042137 61.678495 31.578595 66.199328 31.578595 C 70.954537 31.578595 74.839954 33.083803 77.855579 36.089012 C 80.881621 39.089012 82.397246 43.047346 82.397246 47.969221 Z M 53.001411 45.083804 L 79.397246 45.083804 C 78.839954 41.880679 77.350371 39.31297 74.928495 37.380679 C 72.50662 35.43797 69.595162 34.464012 66.199328 34.464012 C 62.798286 34.464012 59.91287 35.427554 57.527453 37.349429 C 55.147244 39.266095 53.636827 41.844221 53.001411 45.083804 Z M 115.928498 62.000472 L 115.928498 57.328597 C 112.043081 61.203597 107.761831 63.141097 103.084747 63.141097 C 100.246205 63.141097 97.975372 62.302555 96.277455 60.625472 C 94.57433 58.94318 93.725372 56.703597 93.725372 53.901513 L 93.725372 35.490054 L 89.892038 35.490054 C 88.647246 35.490054 88.027455 34.990054 88.027455 33.979637 C 88.027455 33.06297 88.647246 32.604637 89.892038 32.604637 L 96.610789 32.604637 L 96.610789 53.901513 C 96.610789 55.656722 97.23058 57.156722 98.470164 58.396305 C 99.714955 59.635888 101.230581 60.25568 103.027456 60.25568 C 107.740998 60.25568 112.043081 58.135888 115.928498 53.901513 L 115.928498 35.490054 L 110.699331 35.490054 C 109.381623 35.490054 108.725373 34.990054 108.725373 33.979637 C 108.725373 33.06297 109.381623 32.604637 110.699331 32.604637 L 118.803498 32.604637 L 118.803498 59.115055 L 121.20454 59.115055 C 122.480582 59.115055 123.121207 59.578597 123.121207 60.50568 C 123.121207 61.500472 122.480582 62.000472 121.20454 62.000472 Z M 160.975376 37.703595 C 160.730584 37.703595 159.991001 37.214012 158.751418 36.240054 C 157.506626 35.25047 156.308709 34.760887 155.147251 34.760887 C 153.553501 34.760887 151.897251 35.328595 150.168084 36.474429 C 148.449334 37.615054 145.652458 39.964012 141.77225 43.516096 L 141.77225 59.115055 L 154.371209 59.115055 C 155.647251 59.115055 156.287876 59.59943 156.287876 60.562972 C 156.287876 61.521305 155.647251 62.000472 154.371209 62.000472 L 132.121208 62.000472 C 130.845166 62.000472 130.204541 61.500472 130.204541 60.50568 C 130.204541 59.578597 130.845166 59.115055 132.121208 59.115055 L 138.829541 59.115055 L 138.829541 35.490054 L 133.558708 35.490054 C 132.277458 35.490054 131.636833 34.990054 131.636833 33.979637 C 131.636833 33.06297 132.277458 32.604637 133.558708 32.604637 L 141.77225 32.604637 L 141.77225 39.797346 C 145.017042 36.839012 147.64725 34.78172 149.668084 33.630678 C 151.688917 32.46922 153.600376 31.885887 155.397251 31.885887 C 157.230584 31.885887 158.855584 32.448387 160.272251 33.573387 C 161.699335 34.682762 162.412876 35.583804 162.412876 36.266095 C 162.412876 36.708804 162.267043 37.057762 161.985793 37.323387 C 161.71496 37.573387 161.376418 37.703595 160.975376 37.703595 Z M 172.366002 35.302554 C 172.366002 34.302553 173.959752 33.43797 177.152461 32.693178 C 180.355586 31.953595 182.860794 31.578595 184.668086 31.578595 C 187.949336 31.578595 190.65767 32.401512 192.793087 34.042137 C 194.933712 35.682762 196.00142 37.760887 196.00142 40.281721 L 196.00142 59.115055 L 199.78267 59.115055 C 201.058712 59.115055 201.699337 59.578597 201.699337 60.50568 C 201.699337 61.500472 201.058712 62.000472 199.78267 62.000472 L 193.116003 62.000472 L 193.116003 57.25568 C 188.918086 61.177555 184.423294 63.141097 179.626419 63.141097 C 176.345169 63.141097 173.694127 62.302555 171.673294 60.625472 C 169.65246 58.94318 168.642043 56.760888 168.642043 54.078596 C 168.642043 51.042138 170.022252 48.573388 172.772252 46.682763 C 175.537877 44.776513 179.121211 43.823387 183.522253 43.823387 C 186.402461 43.823387 189.600378 44.302554 193.116003 45.260888 L 193.116003 40.281721 C 193.116003 38.56297 192.31392 37.167137 190.714961 36.089012 C 189.121211 35.005679 187.022253 34.464012 184.418086 34.464012 C 182.261836 34.464012 180.017044 34.84422 177.694127 35.609845 C 175.381627 36.370262 174.043085 36.75047 173.68371 36.75047 C 173.360794 36.75047 173.05871 36.609845 172.772252 36.323387 C 172.501419 36.042137 172.366002 35.698387 172.366002 35.302554 Z M 193.116003 54.078596 L 193.116003 47.719221 C 190.199336 47.047346 187.178503 46.708804 184.063919 46.708804 C 180.345169 46.708804 177.324336 47.396304 175.001419 48.776513 C 172.68371 50.151513 171.52746 51.937971 171.52746 54.135888 C 171.52746 55.979638 172.256627 57.464013 173.709752 58.589013 C 175.173294 59.698389 177.126419 60.25568 179.569127 60.25568 C 182.048294 60.25568 184.339961 59.776514 186.438919 58.823388 C 188.537878 57.865055 190.761836 56.281722 193.116003 54.078596 Z M 225.75663 41.656721 L 239.246215 59.115055 L 240.44934 59.115055 C 241.725381 59.115055 242.366006 59.578597 242.366006 60.50568 C 242.366006 61.500472 241.725381 62.000472 240.44934 62.000472 L 231.147256 62.000472 C 229.866006 62.000472 229.230589 61.500472 229.230589 60.50568 C 229.230589 59.578597 229.866006 59.115055 231.147256 59.115055 L 235.464964 59.115055 L 223.839964 44.000471 L 212.313921 59.115055 L 216.808713 59.115055 C 218.084755 59.115055 218.72538 59.578597 218.72538 60.50568 C 218.72538 61.500472 218.084755 62.000472 216.808713 62.000472 L 207.579546 62.000472 C 206.303504 62.000472 205.662879 61.500472 205.662879 60.50568 C 205.662879 59.578597 206.303504 59.115055 207.579546 59.115055 L 208.782671 59.115055 L 222.03788 41.656721 L 209.366004 25.167136 L 208.355588 25.167136 C 207.079546 25.167136 206.438921 24.667136 206.438921 23.672344 C 206.438921 22.745261 207.079546 22.281719 208.355588 22.281719 L 216.089963 22.281719 C 217.371213 22.281719 218.00663 22.745261 218.00663 23.672344 C 218.00663 24.667136 217.371213 25.167136 216.089963 25.167136 L 213.089963 25.167136 L 224.011839 39.385887 L 234.808714 25.167136 L 231.631631 25.167136 C 230.350381 25.167136 229.709756 24.667136 229.709756 23.672344 C 229.709756 22.745261 230.350381 22.281719 231.631631 22.281719 L 239.433715 22.281719 C 240.714965 22.281719 241.35559 22.745261 241.35559 23.672344 C 241.35559 24.667136 240.714965 25.167136 239.433715 25.167136 L 238.412881 25.167136 Z M 225.75663 41.656721 " stroke="#000000" stroke-width="4.499962" stroke-opacity="1" stroke-miterlimit="4"/><g fill="#ffffff" fill-opacity="1"><g transform="translate(1785.471601, 273.937146)"><g><path d="M 26.5 0 L 23.765625 0 L 7.609375 -26.6875 L 7.609375 -2.15625 L 11.609375 -2.15625 C 12.535156 -2.15625 13 -1.8125 13 -1.125 C 13 -0.375 12.535156 0 11.609375 0 L 3.640625 0 C 2.679688 0 2.203125 -0.375 2.203125 -1.125 C 2.203125 -1.8125 2.679688 -2.15625 3.640625 -2.15625 L 5.4375 -2.15625 L 5.4375 -27.625 L 2.609375 -27.625 C 1.648438 -27.625 1.171875 -28 1.171875 -28.75 C 1.171875 -29.445312 1.648438 -29.796875 2.609375 -29.796875 L 8.1875 -29.796875 L 24.34375 -3.109375 L 24.34375 -27.625 L 20.4375 -27.625 C 19.4375 -27.625 18.9375 -28 18.9375 -28.75 C 18.9375 -29.445312 19.4375 -29.796875 20.4375 -29.796875 L 28.3125 -29.796875 C 29.269531 -29.796875 29.75 -29.445312 29.75 -28.75 C 29.75 -28 29.269531 -27.625 28.3125 -27.625 L 26.5 -27.625 Z M 26.5 0 "/></g></g></g><g fill="#ffffff" fill-opacity="1"><g transform="translate(1814.938393, 273.937146)"><g><path d="M 27.546875 -10.53125 L 5.484375 -10.53125 C 5.878906 -7.769531 7.050781 -5.539062 9 -3.84375 C 10.945312 -2.15625 13.347656 -1.3125 16.203125 -1.3125 C 17.847656 -1.3125 19.539062 -1.578125 21.28125 -2.109375 C 23.019531 -2.648438 24.414062 -3.34375 25.46875 -4.1875 C 25.800781 -4.425781 26.070312 -4.546875 26.28125 -4.546875 C 26.550781 -4.546875 26.789062 -4.445312 27 -4.25 C 27.207031 -4.050781 27.3125 -3.804688 27.3125 -3.515625 C 27.3125 -2.578125 26.050781 -1.613281 23.53125 -0.625 C 21.007812 0.363281 18.550781 0.859375 16.15625 0.859375 C 12.582031 0.859375 9.550781 -0.332031 7.0625 -2.71875 C 4.570312 -5.101562 3.328125 -8.019531 3.328125 -11.46875 C 3.328125 -14.65625 4.488281 -17.34375 6.8125 -19.53125 C 9.144531 -21.71875 12.003906 -22.8125 15.390625 -22.8125 C 18.960938 -22.8125 21.878906 -21.6875 24.140625 -19.4375 C 26.410156 -17.1875 27.546875 -14.21875 27.546875 -10.53125 Z M 5.484375 -12.6875 L 25.296875 -12.6875 C 24.867188 -15.09375 23.75 -17.019531 21.9375 -18.46875 C 20.125 -19.925781 17.941406 -20.65625 15.390625 -20.65625 C 12.835938 -20.65625 10.664062 -19.929688 8.875 -18.484375 C 7.09375 -17.046875 5.960938 -15.113281 5.484375 -12.6875 Z M 5.484375 -12.6875 "/></g></g></g><g fill="#ffffff" fill-opacity="1"><g transform="translate(1844.405185, 273.937146)"><g><path d="M 23.21875 0 L 23.21875 -3.515625 C 20.3125 -0.597656 17.101562 0.859375 13.59375 0.859375 C 11.457031 0.859375 9.75 0.226562 8.46875 -1.03125 C 7.195312 -2.289062 6.5625 -3.972656 6.5625 -6.078125 L 6.5625 -19.890625 L 3.6875 -19.890625 C 2.757812 -19.890625 2.296875 -20.265625 2.296875 -21.015625 C 2.296875 -21.703125 2.757812 -22.046875 3.6875 -22.046875 L 8.734375 -22.046875 L 8.734375 -6.078125 C 8.734375 -4.753906 9.195312 -3.628906 10.125 -2.703125 C 11.050781 -1.773438 12.191406 -1.3125 13.546875 -1.3125 C 17.085938 -1.3125 20.3125 -2.898438 23.21875 -6.078125 L 23.21875 -19.890625 L 19.3125 -19.890625 C 18.3125 -19.890625 17.8125 -20.265625 17.8125 -21.015625 C 17.8125 -21.703125 18.3125 -22.046875 19.3125 -22.046875 L 25.375 -22.046875 L 25.375 -2.15625 L 27.1875 -2.15625 C 28.144531 -2.15625 28.625 -1.8125 28.625 -1.125 C 28.625 -0.375 28.144531 0 27.1875 0 Z M 23.21875 0 "/></g></g></g><g fill="#ffffff" fill-opacity="1"><g transform="translate(1873.871974, 273.937146)"><g><path d="M 27.546875 -18.21875 C 27.359375 -18.21875 26.800781 -18.585938 25.875 -19.328125 C 24.945312 -20.066406 24.046875 -20.4375 23.171875 -20.4375 C 21.972656 -20.4375 20.726562 -20.003906 19.4375 -19.140625 C 18.144531 -18.285156 16.046875 -16.523438 13.140625 -13.859375 L 13.140625 -2.15625 L 22.59375 -2.15625 C 23.550781 -2.15625 24.03125 -1.796875 24.03125 -1.078125 C 24.03125 -0.359375 23.550781 0 22.59375 0 L 5.890625 0 C 4.929688 0 4.453125 -0.375 4.453125 -1.125 C 4.453125 -1.8125 4.929688 -2.15625 5.890625 -2.15625 L 10.9375 -2.15625 L 10.9375 -19.890625 L 6.96875 -19.890625 C 6.007812 -19.890625 5.53125 -20.265625 5.53125 -21.015625 C 5.53125 -21.703125 6.007812 -22.046875 6.96875 -22.046875 L 13.140625 -22.046875 L 13.140625 -16.65625 C 15.566406 -18.875 17.535156 -20.414062 19.046875 -21.28125 C 20.566406 -22.15625 22.003906 -22.59375 23.359375 -22.59375 C 24.734375 -22.59375 25.953125 -22.171875 27.015625 -21.328125 C 28.085938 -20.484375 28.625 -19.8125 28.625 -19.3125 C 28.625 -18.976562 28.515625 -18.710938 28.296875 -18.515625 C 28.085938 -18.316406 27.835938 -18.21875 27.546875 -18.21875 Z M 27.546875 -18.21875 "/></g></g></g><g fill="#ffffff" fill-opacity="1"><g transform="translate(1903.33877, 273.937146)"><g><path d="M 6.609375 -20.03125 C 6.609375 -20.78125 7.804688 -21.429688 10.203125 -21.984375 C 12.609375 -22.535156 14.488281 -22.8125 15.84375 -22.8125 C 18.300781 -22.8125 20.332031 -22.195312 21.9375 -20.96875 C 23.539062 -19.738281 24.34375 -18.179688 24.34375 -16.296875 L 24.34375 -2.15625 L 27.1875 -2.15625 C 28.144531 -2.15625 28.625 -1.8125 28.625 -1.125 C 28.625 -0.375 28.144531 0 27.1875 0 L 22.1875 0 L 22.1875 -3.5625 C 19.03125 -0.613281 15.65625 0.859375 12.0625 0.859375 C 9.601562 0.859375 7.613281 0.226562 6.09375 -1.03125 C 4.582031 -2.289062 3.828125 -3.925781 3.828125 -5.9375 C 3.828125 -8.21875 4.859375 -10.070312 6.921875 -11.5 C 8.992188 -12.925781 11.679688 -13.640625 14.984375 -13.640625 C 17.140625 -13.640625 19.539062 -13.28125 22.1875 -12.5625 L 22.1875 -16.296875 C 22.1875 -17.578125 21.582031 -18.625 20.375 -19.4375 C 19.175781 -20.25 17.601562 -20.65625 15.65625 -20.65625 C 14.039062 -20.65625 12.363281 -20.367188 10.625 -19.796875 C 8.882812 -19.222656 7.878906 -18.9375 7.609375 -18.9375 C 7.367188 -18.9375 7.140625 -19.039062 6.921875 -19.25 C 6.710938 -19.46875 6.609375 -19.726562 6.609375 -20.03125 Z M 22.1875 -5.9375 L 22.1875 -10.703125 C 20 -11.210938 17.734375 -11.46875 15.390625 -11.46875 C 12.597656 -11.46875 10.332031 -10.953125 8.59375 -9.921875 C 6.851562 -8.890625 5.984375 -7.546875 5.984375 -5.890625 C 5.984375 -4.515625 6.53125 -3.40625 7.625 -2.5625 C 8.71875 -1.726562 10.179688 -1.3125 12.015625 -1.3125 C 13.878906 -1.3125 15.597656 -1.671875 17.171875 -2.390625 C 18.742188 -3.109375 20.414062 -4.289062 22.1875 -5.9375 Z M 22.1875 -5.9375 "/></g></g></g><g fill="#ffffff" fill-opacity="1"><g transform="translate(1932.805565, 273.937146)"><g><path d="M 17.1875 -15.25 L 27.3125 -2.15625 L 28.21875 -2.15625 C 29.175781 -2.15625 29.65625 -1.8125 29.65625 -1.125 C 29.65625 -0.375 29.175781 0 28.21875 0 L 21.234375 0 C 20.273438 0 19.796875 -0.375 19.796875 -1.125 C 19.796875 -1.8125 20.273438 -2.15625 21.234375 -2.15625 L 24.484375 -2.15625 L 15.75 -13.5 L 7.109375 -2.15625 L 10.484375 -2.15625 C 11.441406 -2.15625 11.921875 -1.8125 11.921875 -1.125 C 11.921875 -0.375 11.441406 0 10.484375 0 L 3.5625 0 C 2.59375 0 2.109375 -0.375 2.109375 -1.125 C 2.109375 -1.8125 2.59375 -2.15625 3.5625 -2.15625 L 4.453125 -2.15625 L 14.40625 -15.25 L 4.90625 -27.625 L 4.140625 -27.625 C 3.179688 -27.625 2.703125 -28 2.703125 -28.75 C 2.703125 -29.445312 3.179688 -29.796875 4.140625 -29.796875 L 9.9375 -29.796875 C 10.90625 -29.796875 11.390625 -29.445312 11.390625 -28.75 C 11.390625 -28 10.90625 -27.625 9.9375 -27.625 L 7.6875 -27.625 L 15.890625 -16.96875 L 23.984375 -27.625 L 21.59375 -27.625 C 20.632812 -27.625 20.15625 -28 20.15625 -28.75 C 20.15625 -29.445312 20.632812 -29.796875 21.59375 -29.796875 L 27.453125 -29.796875 C 28.410156 -29.796875 28.890625 -29.445312 28.890625 -28.75 C 28.890625 -28 28.410156 -27.625 27.453125 -27.625 L 26.6875 -27.625 Z M 17.1875 -15.25 "/></g></g></g></svg>