<svg xmlns="http://www.w3.org/2000/svg" xmlns:xlink="http://www.w3.org/1999/xlink" width="500" zoomAndPan="magnify" viewBox="0 0 375 374.999991" height="500" preserveAspectRatio="xMidYMid meet" version="1.0"><defs><g/><clipPath id="498a3c36fc"><path d="M 271.738281 159.695312 L 280.632812 159.695312 L 280.632812 168.71875 L 271.738281 168.71875 Z M 271.738281 159.695312 " clip-rule="nonzero"/></clipPath><clipPath id="6293b1afe8"><path d="M 175 89.8125 L 185 89.8125 L 185 99 L 175 99 Z M 175 89.8125 " clip-rule="nonzero"/></clipPath><clipPath id="24f0fb0059"><path d="M 237.328125 218.472656 L 251.183594 218.472656 L 251.183594 232.210938 L 237.328125 232.210938 Z M 237.328125 218.472656 " clip-rule="nonzero"/></clipPath><clipPath id="950f631ecf"><path d="M 94.304688 141 L 109 141 L 109 156 L 94.304688 156 Z M 94.304688 141 " clip-rule="nonzero"/></clipPath></defs><rect x="-37.5" width="450" fill="#ffffff" y="-37.499999" height="449.999989" fill-opacity="1"/><rect x="-37.5" width="450" fill="#020202" y="-37.499999" height="449.999989" fill-opacity="1"/><path fill="#ffffff" d="M 241.875 166.191406 C 241.875 168.632812 239.898438 170.613281 237.460938 170.613281 C 235.023438 170.613281 233.046875 168.632812 233.046875 166.191406 C 233.046875 163.75 235.023438 161.769531 237.460938 161.769531 C 239.898438 161.769531 241.875 163.75 241.875 166.191406 " fill-opacity="1" fill-rule="nonzero"/><path fill="#ffffff" d="M 228.199219 121.464844 C 228.199219 123.910156 226.222656 125.886719 223.785156 125.886719 C 221.347656 125.886719 219.375 123.910156 219.375 121.464844 C 219.375 119.023438 221.347656 117.042969 223.785156 117.042969 C 226.222656 117.042969 228.199219 119.023438 228.199219 121.464844 " fill-opacity="1" fill-rule="nonzero"/><path fill="#ffffff" d="M 258.4375 110.367188 C 258.4375 112.808594 256.460938 114.785156 254.023438 114.785156 C 251.589844 114.785156 249.613281 112.808594 249.613281 110.367188 C 249.613281 107.921875 251.589844 105.945312 254.023438 105.945312 C 256.460938 105.945312 258.4375 107.921875 258.4375 110.367188 " fill-opacity="1" fill-rule="nonzero"/><g clip-path="url(#498a3c36fc)"><path fill="#ffffff" d="M 280.632812 164.199219 C 280.632812 166.640625 278.65625 168.621094 276.21875 168.621094 C 273.78125 168.621094 271.808594 166.640625 271.808594 164.199219 C 271.808594 161.757812 273.78125 159.777344 276.21875 159.777344 C 278.65625 159.777344 280.632812 161.757812 280.632812 164.199219 " fill-opacity="1" fill-rule="nonzero"/></g><path fill="#ffffff" d="M 275.132812 125.886719 C 275.132812 128.328125 273.15625 130.308594 270.71875 130.308594 C 268.28125 130.308594 266.308594 128.328125 266.308594 125.886719 C 266.308594 123.445312 268.28125 121.464844 270.71875 121.464844 C 273.15625 121.464844 275.132812 123.445312 275.132812 125.886719 " fill-opacity="1" fill-rule="nonzero"/><path fill="#ffffff" d="M 246.148438 203.878906 C 246.148438 206.320312 244.171875 208.296875 241.734375 208.296875 C 239.296875 208.296875 237.320312 206.320312 237.320312 203.878906 C 237.320312 201.433594 239.296875 199.457031 241.734375 199.457031 C 244.171875 199.457031 246.148438 201.433594 246.148438 203.878906 " fill-opacity="1" fill-rule="nonzero"/><path fill="#ffffff" d="M 275.132812 195.941406 C 275.132812 198.382812 273.15625 200.363281 270.71875 200.363281 C 268.28125 200.363281 266.308594 198.382812 266.308594 195.941406 C 266.308594 193.5 268.28125 191.519531 270.71875 191.519531 C 273.15625 191.519531 275.132812 193.5 275.132812 195.941406 " fill-opacity="1" fill-rule="nonzero"/><path fill="#ffffff" d="M 167.964844 161.769531 C 167.964844 164.210938 165.992188 166.191406 163.554688 166.191406 C 161.117188 166.191406 159.140625 164.210938 159.140625 161.769531 C 159.140625 159.328125 161.117188 157.347656 163.554688 157.347656 C 165.992188 157.347656 167.964844 159.328125 167.964844 161.769531 " fill-opacity="1" fill-rule="nonzero"/><path fill="#ffffff" d="M 219.574219 142.832031 C 219.574219 145.273438 217.597656 147.253906 215.160156 147.253906 C 212.722656 147.253906 210.75 145.273438 210.75 142.832031 C 210.75 140.390625 212.722656 138.410156 215.160156 138.410156 C 217.597656 138.410156 219.574219 140.390625 219.574219 142.832031 " fill-opacity="1" fill-rule="nonzero"/><path fill="#ffffff" d="M 191.484375 176.347656 C 191.484375 178.789062 189.507812 180.765625 187.070312 180.765625 C 184.632812 180.765625 182.660156 178.789062 182.660156 176.347656 C 182.660156 173.902344 184.632812 171.925781 187.070312 171.925781 C 189.507812 171.925781 191.484375 173.902344 191.484375 176.347656 " fill-opacity="1" fill-rule="nonzero"/><path fill="#ffffff" d="M 123.253906 117.042969 C 123.253906 119.488281 121.277344 121.464844 118.839844 121.464844 C 116.402344 121.464844 114.425781 119.488281 114.425781 117.042969 C 114.425781 114.601562 116.402344 112.625 118.839844 112.625 C 121.277344 112.625 123.253906 114.601562 123.253906 117.042969 " fill-opacity="1" fill-rule="nonzero"/><path fill="#ffffff" d="M 116.871094 167.867188 C 116.871094 170.3125 114.894531 172.289062 112.457031 172.289062 C 110.023438 172.289062 108.046875 170.3125 108.046875 167.867188 C 108.046875 165.425781 110.023438 163.449219 112.457031 163.449219 C 114.894531 163.449219 116.871094 165.425781 116.871094 167.867188 " fill-opacity="1" fill-rule="nonzero"/><path fill="#ffffff" d="M 139.738281 184.824219 C 139.738281 187.265625 137.765625 189.242188 135.328125 189.242188 C 132.890625 189.242188 130.914062 187.265625 130.914062 184.824219 C 130.914062 182.382812 132.890625 180.402344 135.328125 180.402344 C 137.765625 180.402344 139.738281 182.382812 139.738281 184.824219 " fill-opacity="1" fill-rule="nonzero"/><g clip-path="url(#6293b1afe8)"><path fill="#ffffff" d="M 184.644531 94.234375 C 184.644531 96.675781 182.671875 98.652344 180.230469 98.652344 C 177.796875 98.652344 175.820312 96.675781 175.820312 94.234375 C 175.820312 91.789062 177.796875 89.8125 180.230469 89.8125 C 182.671875 89.8125 184.644531 91.789062 184.644531 94.234375 " fill-opacity="1" fill-rule="nonzero"/></g><path fill="#ffffff" d="M 206.335938 103.074219 C 206.335938 105.515625 204.359375 107.496094 201.921875 107.496094 C 199.488281 107.496094 197.511719 105.515625 197.511719 103.074219 C 197.511719 100.632812 199.488281 98.652344 201.921875 98.652344 C 204.359375 98.652344 206.335938 100.632812 206.335938 103.074219 " fill-opacity="1" fill-rule="nonzero"/><path fill="#ffffff" d="M 163.554688 127.839844 C 163.554688 130.28125 161.578125 132.261719 159.140625 132.261719 C 156.703125 132.261719 154.726562 130.28125 154.726562 127.839844 C 154.726562 125.398438 156.703125 123.417969 159.140625 123.417969 C 161.578125 123.417969 163.554688 125.398438 163.554688 127.839844 " fill-opacity="1" fill-rule="nonzero"/><path fill="#ffffff" d="M 180.867188 97.527344 L 176.3125 115.972656 L 188.96875 108.796875 Z M 161.125 127.820312 L 164.066406 153.820312 L 172.015625 121.644531 Z M 165.328125 160.453125 L 197.167969 162.109375 L 213.378906 142.765625 L 190.621094 111.101562 L 175.382812 119.738281 Z M 225.527344 122.339844 L 238.039062 162.738281 L 268.808594 125.976562 L 254.671875 111.988281 Z M 120.035156 118.789062 L 114.3125 163.550781 L 156.601562 127.761719 Z M 200.683594 162.292969 L 235.519531 164.109375 L 222.566406 122.28125 L 201.765625 104.78125 L 193.085938 109.703125 L 216.941406 142.898438 Z M 164.046875 163.207031 L 141.855469 182.597656 L 186.324219 175.042969 L 194.898438 164.816406 Z M 189.292969 175.886719 L 241.886719 202.375 L 269.453125 194.828125 L 273.507812 165.671875 L 239.347656 166.960938 L 239.402344 167.132812 L 237.449219 167.03125 L 234.347656 167.148438 L 234.570312 166.882812 L 198.417969 165 Z M 241.585938 205.378906 L 186.851562 177.8125 L 132.480469 187.046875 L 162.074219 161.195312 L 158.519531 129.828125 L 110.605469 170.378906 L 117.644531 115.300781 L 159.261719 125.511719 L 160.722656 124.273438 L 160.777344 124.777344 L 172.941406 117.882812 L 179.597656 90.9375 L 191.429688 107.402344 L 202.082031 101.367188 L 224.074219 119.867188 L 255.394531 108.742188 L 272.628906 125.796875 L 240.574219 164.09375 L 276.757812 162.730469 L 271.984375 197.054688 L 241.585938 205.378906 " fill-opacity="1" fill-rule="nonzero"/><path fill="#ffffff" d="M 240.339844 204.035156 L 236.0625 166.351562 L 238.859375 166.03125 L 243.132812 203.71875 L 240.339844 204.035156 " fill-opacity="1" fill-rule="nonzero"/><path fill="#ffffff" d="M 134.492188 185.957031 L 111.621094 169 L 113.296875 166.734375 L 136.164062 183.691406 L 134.492188 185.957031 " fill-opacity="1" fill-rule="nonzero"/><path fill="#006dff" d="M 279.984375 144.503906 C 279.984375 148.285156 276.921875 151.355469 273.144531 151.355469 C 269.367188 151.355469 266.308594 148.285156 266.308594 144.503906 C 266.308594 140.71875 269.367188 137.652344 273.144531 137.652344 C 276.921875 137.652344 279.984375 140.71875 279.984375 144.503906 " fill-opacity="1" fill-rule="nonzero"/><path fill="#006dff" d="M 230.625 101.082031 C 230.625 104.867188 227.5625 107.933594 223.785156 107.933594 C 220.007812 107.933594 216.949219 104.867188 216.949219 101.082031 C 216.949219 97.300781 220.007812 94.234375 223.785156 94.234375 C 227.5625 94.234375 230.625 97.300781 230.625 101.082031 " fill-opacity="1" fill-rule="nonzero"/><path fill="#006dff" d="M 268.707031 182.390625 C 268.707031 186.175781 265.648438 189.242188 261.871094 189.242188 C 258.09375 189.242188 255.03125 186.175781 255.03125 182.390625 C 255.03125 178.609375 258.09375 175.542969 261.871094 175.542969 C 265.648438 175.542969 268.707031 178.609375 268.707031 182.390625 " fill-opacity="1" fill-rule="nonzero"/><path fill="#006dff" d="M 227.5625 199.457031 C 227.5625 203.242188 224.5 206.308594 220.726562 206.308594 C 216.949219 206.308594 213.886719 203.242188 213.886719 199.457031 C 213.886719 195.675781 216.949219 192.605469 220.726562 192.605469 C 224.5 192.605469 227.5625 195.675781 227.5625 199.457031 " fill-opacity="1" fill-rule="nonzero"/><g clip-path="url(#24f0fb0059)"><path fill="#006dff" d="M 251.136719 225.359375 C 251.136719 229.144531 248.074219 232.210938 244.296875 232.210938 C 240.523438 232.210938 237.460938 229.144531 237.460938 225.359375 C 237.460938 221.578125 240.523438 218.507812 244.296875 218.507812 C 248.074219 218.507812 251.136719 221.578125 251.136719 225.359375 " fill-opacity="1" fill-rule="nonzero"/></g><path fill="#006dff" d="M 193.90625 126.65625 C 193.90625 130.4375 190.847656 133.507812 187.070312 133.507812 C 183.292969 133.507812 180.230469 130.4375 180.230469 126.65625 C 180.230469 122.871094 183.292969 119.800781 187.070312 119.800781 C 190.847656 119.800781 193.90625 122.871094 193.90625 126.65625 " fill-opacity="1" fill-rule="nonzero"/><path fill="#006dff" d="M 198.375 157.347656 C 198.375 161.132812 195.316406 164.199219 191.539062 164.199219 C 187.761719 164.199219 184.699219 161.132812 184.699219 157.347656 C 184.699219 153.566406 187.761719 150.5 191.539062 150.5 C 195.316406 150.5 198.375 153.566406 198.375 157.347656 " fill-opacity="1" fill-rule="nonzero"/><path fill="#006dff" d="M 164.519531 182.390625 C 164.519531 186.175781 161.457031 189.242188 157.679688 189.242188 C 153.902344 189.242188 150.84375 186.175781 150.84375 182.390625 C 150.84375 178.609375 153.902344 175.542969 157.679688 175.542969 C 161.457031 175.542969 164.519531 178.609375 164.519531 182.390625 " fill-opacity="1" fill-rule="nonzero"/><path fill="#006dff" d="M 150.84375 139.40625 C 150.84375 143.191406 147.78125 146.257812 144.003906 146.257812 C 140.226562 146.257812 137.167969 143.191406 137.167969 139.40625 C 137.167969 135.621094 140.226562 132.554688 144.003906 132.554688 C 147.78125 132.554688 150.84375 135.621094 150.84375 139.40625 " fill-opacity="1" fill-rule="nonzero"/><path fill="#006dff" d="M 155.253906 105.503906 C 155.253906 109.289062 152.195312 112.355469 148.417969 112.355469 C 144.640625 112.355469 141.578125 109.289062 141.578125 105.503906 C 141.578125 101.722656 144.640625 98.652344 148.417969 98.652344 C 152.195312 98.652344 155.253906 101.722656 155.253906 105.503906 " fill-opacity="1" fill-rule="nonzero"/><g clip-path="url(#950f631ecf)"><path fill="#006dff" d="M 108.046875 148.203125 C 108.046875 151.988281 104.984375 155.054688 101.207031 155.054688 C 97.433594 155.054688 94.371094 151.988281 94.371094 148.203125 C 94.371094 144.417969 97.433594 141.351562 101.207031 141.351562 C 104.984375 141.351562 108.046875 144.417969 108.046875 148.203125 " fill-opacity="1" fill-rule="nonzero"/></g><path fill="#006dff" d="M 103.6875 149.605469 L 102.953125 146.058594 L 142.378906 137.894531 L 146.964844 102.648438 L 186.957031 124.527344 L 222.753906 99.597656 L 224.816406 102.570312 L 187.183594 128.78125 L 149.871094 108.363281 L 145.632812 140.917969 L 103.6875 149.605469 " fill-opacity="1" fill-rule="nonzero"/><path fill="#006dff" d="M 104.558594 149.15625 L 102.085938 146.511719 L 147.183594 104.183594 L 149.652344 106.828125 L 104.558594 149.15625 " fill-opacity="1" fill-rule="nonzero"/><path fill="#006dff" d="M 188.964844 158.382812 L 143.402344 142.265625 L 144.605469 138.847656 L 190.167969 154.964844 L 188.964844 158.382812 " fill-opacity="1" fill-rule="nonzero"/><path fill="#006dff" d="M 158.773438 183.835938 L 156.585938 180.949219 L 190.445312 155.230469 L 192.632812 158.117188 L 158.773438 183.835938 " fill-opacity="1" fill-rule="nonzero"/><path fill="#006dff" d="M 220.066406 201.726562 L 192.40625 160.457031 L 195.410156 158.4375 L 221.382812 197.191406 L 261.148438 179.792969 L 262.59375 183.113281 L 220.066406 201.726562 " fill-opacity="1" fill-rule="nonzero"/><path fill="#006dff" d="M 262.375 184.957031 L 258.945312 183.808594 L 270.519531 149.023438 L 191.769531 159.148438 L 191.308594 155.550781 L 275.769531 144.695312 L 262.375 184.957031 " fill-opacity="1" fill-rule="nonzero"/><path fill="#006dff" d="M 272.800781 146.28125 L 186.726562 129.617188 L 187.414062 126.058594 L 273.488281 142.726562 L 272.800781 146.28125 " fill-opacity="1" fill-rule="nonzero"/><path fill="#006dff" d="M 271.953125 145.863281 L 222.59375 102.445312 L 224.976562 99.722656 L 274.335938 143.140625 L 271.953125 145.863281 " fill-opacity="1" fill-rule="nonzero"/><path fill="#006dff" d="M 191.476562 156.871094 C 189.917969 156.871094 189.683594 155.261719 189.511719 154.070312 C 189.398438 153.304688 189.253906 152.179688 189.074219 150.734375 C 188.773438 148.308594 188.375 144.929688 187.894531 140.6875 C 187.074219 133.46875 186.28125 126.15625 186.277344 126.082031 L 189.871094 125.691406 C 190.996094 136.09375 192.90625 153.117188 193.25 154.503906 C 193.109375 153.941406 192.414062 153.15625 191.371094 153.25 L 191.703125 156.859375 C 191.625 156.867188 191.550781 156.871094 191.476562 156.871094 " fill-opacity="1" fill-rule="nonzero"/><path fill="#006dff" d="M 155.964844 182.96875 L 143.316406 145.078125 L 146.746094 143.929688 L 159.394531 181.816406 L 155.964844 182.96875 " fill-opacity="1" fill-rule="nonzero"/><path fill="#006dff" d="M 219.398438 200.414062 L 156.96875 184.433594 L 100.265625 149.75 L 102.148438 146.65625 L 158.390625 181.058594 L 220.296875 196.902344 L 219.398438 200.414062 " fill-opacity="1" fill-rule="nonzero"/><path fill="#006dff" d="M 244.898438 228.792969 L 221.023438 201.558594 L 223.742188 199.167969 L 243.699219 221.929688 L 259.402344 181.730469 L 262.773438 183.054688 L 244.898438 228.792969 " fill-opacity="1" fill-rule="nonzero"/><path stroke-linecap="butt" transform="matrix(0.75, 0, 0, 0.75, 93.178746, 227.437149)" fill="none" stroke-linejoin="miter" d="M 41.730425 62.000472 L 38.068967 62.000472 L 16.527299 26.422345 L 16.527299 59.115055 L 21.871049 59.115055 C 23.110632 59.115055 23.730424 59.578597 23.730424 60.50568 C 23.730424 61.500472 23.110632 62.000472 21.871049 62.000472 L 11.251257 62.000472 C 9.975215 62.000472 9.33459 61.500472 9.33459 60.50568 C 9.33459 59.578597 9.975215 59.115055 11.251257 59.115055 L 13.657507 59.115055 L 13.657507 25.167136 L 9.876257 25.167136 C 8.589798 25.167136 7.943965 24.667136 7.943965 23.672344 C 7.943965 22.745261 8.589798 22.281719 9.876257 22.281719 L 17.30334 22.281719 L 38.845008 57.854638 L 38.845008 25.167136 L 33.631466 25.167136 C 32.303341 25.167136 31.641883 24.667136 31.641883 23.672344 C 31.641883 22.745261 32.303341 22.281719 33.631466 22.281719 L 44.12105 22.281719 C 45.397092 22.281719 46.037717 22.745261 46.037717 23.672344 C 46.037717 24.667136 45.397092 25.167136 44.12105 25.167136 L 41.730425 25.167136 Z M 82.397095 47.969221 L 53.001259 47.969221 C 53.522093 51.641096 55.079385 54.609846 57.673135 56.875472 C 60.272093 59.13068 63.475218 60.25568 67.28251 60.25568 C 69.480427 60.25568 71.735636 59.901514 74.048136 59.187972 C 76.371053 58.464013 78.230428 57.542138 79.631469 56.422347 C 80.068969 56.09943 80.428345 55.937972 80.714803 55.937972 C 81.074178 55.937972 81.391886 56.06818 81.66272 56.333805 C 81.949178 56.594222 82.089803 56.927555 82.089803 57.328597 C 82.089803 58.557763 80.41272 59.839014 77.053344 61.167139 C 73.693969 62.484847 70.412719 63.141097 67.209594 63.141097 C 62.454385 63.141097 58.417926 61.557764 55.09501 58.38068 C 51.777301 55.198388 50.115843 51.307763 50.115843 46.708804 C 50.115843 42.464012 51.662718 38.880679 54.761676 35.958804 C 57.865843 33.042137 61.678343 31.578595 66.199177 31.578595 C 70.954386 31.578595 74.839802 33.083803 77.855428 36.089012 C 80.88147 39.089012 82.397095 43.047346 82.397095 47.969221 Z M 53.001259 45.083804 L 79.397094 45.083804 C 78.839803 41.880679 77.350219 39.31297 74.928344 37.380679 C 72.506469 35.43797 69.59501 34.464012 66.199177 34.464012 C 62.803343 34.464012 59.912718 35.427554 57.527301 37.349429 C 55.147093 39.266095 53.636676 41.844221 53.001259 45.083804 Z M 115.928347 62.000472 L 115.928347 57.328597 C 112.04293 61.203597 107.76168 63.141097 103.084596 63.141097 C 100.246054 63.141097 97.975221 62.302555 96.277304 60.625472 C 94.574179 58.94318 93.72522 56.703597 93.72522 53.901513 L 93.72522 35.490054 L 89.891887 35.490054 C 88.652303 35.490054 88.027303 34.990054 88.027303 33.979637 C 88.027303 33.06297 88.652303 32.604637 89.891887 32.604637 L 96.610637 32.604637 L 96.610637 53.901513 C 96.610637 55.656722 97.230429 57.156722 98.470012 58.396305 C 99.714804 59.635888 101.230429 60.25568 103.027304 60.25568 C 107.740846 60.25568 112.04293 58.135888 115.928347 53.901513 L 115.928347 35.490054 L 110.69918 35.490054 C 109.381471 35.490054 108.725221 34.990054 108.725221 33.979637 C 108.725221 33.06297 109.381471 32.604637 110.69918 32.604637 L 118.803347 32.604637 L 118.803347 59.115055 L 121.204389 59.115055 C 122.480431 59.115055 123.121056 59.578597 123.121056 60.50568 C 123.121056 61.500472 122.480431 62.000472 121.204389 62.000472 Z M 160.975225 37.703595 C 160.730433 37.703595 159.99085 37.214012 158.751266 36.240054 C 157.511683 35.25047 156.308558 34.760887 155.147099 34.760887 C 153.553349 34.760887 151.897099 35.328595 150.167932 36.474429 C 148.449182 37.615054 145.652307 39.964012 141.772099 43.516096 L 141.772099 59.115055 L 154.371058 59.115055 C 155.647099 59.115055 156.287724 59.59943 156.287724 60.562972 C 156.287724 61.521305 155.647099 62.000472 154.371058 62.000472 L 132.121056 62.000472 C 130.845014 62.000472 130.204389 61.500472 130.204389 60.50568 C 130.204389 59.578597 130.845014 59.115055 132.121056 59.115055 L 138.82939 59.115055 L 138.82939 35.490054 L 133.558556 35.490054 C 132.277306 35.490054 131.64189 34.990054 131.64189 33.979637 C 131.64189 33.06297 132.277306 32.604637 133.558556 32.604637 L 141.772099 32.604637 L 141.772099 39.797346 C 145.01689 36.839012 147.647099 34.78172 149.667932 33.630678 C 151.688766 32.46922 153.600224 31.885887 155.397099 31.885887 C 157.230433 31.885887 158.855433 32.448387 160.2721 33.573387 C 161.699183 34.682762 162.412725 35.583804 162.412725 36.266095 C 162.412725 36.708804 162.266892 37.057762 161.985642 37.323387 C 161.714808 37.573387 161.376266 37.703595 160.975225 37.703595 Z M 172.365851 35.302554 C 172.365851 34.302553 173.959601 33.43797 177.152309 32.693178 C 180.355434 31.953595 182.860643 31.578595 184.667935 31.578595 C 187.949185 31.578595 190.657518 32.401512 192.792935 34.042137 C 194.93356 35.682762 196.001269 37.760887 196.001269 40.281721 L 196.001269 59.115055 L 199.782519 59.115055 C 201.058561 59.115055 201.699186 59.578597 201.699186 60.50568 C 201.699186 61.500472 201.058561 62.000472 199.782519 62.000472 L 193.115852 62.000472 L 193.115852 57.25568 C 188.917935 61.177555 184.423143 63.141097 179.626268 63.141097 C 176.345017 63.141097 173.693976 62.302555 171.673142 60.625472 C 169.652309 58.94318 168.641892 56.760888 168.641892 54.078596 C 168.641892 51.042138 170.0221 48.573388 172.772101 46.682763 C 175.537726 44.776513 179.121059 43.823387 183.522101 43.823387 C 186.40231 43.823387 189.600227 44.302554 193.115852 45.260888 L 193.115852 40.281721 C 193.115852 38.56297 192.318977 37.167137 190.71481 36.089012 C 189.12106 35.005679 187.022102 34.464012 184.417935 34.464012 C 182.261685 34.464012 180.016893 34.84422 177.693976 35.609845 C 175.381476 36.370262 174.042934 36.75047 173.683559 36.75047 C 173.360642 36.75047 173.058559 36.609845 172.772101 36.323387 C 172.501267 36.042137 172.365851 35.698387 172.365851 35.302554 Z M 193.115852 54.078596 L 193.115852 47.719221 C 190.199185 47.047346 187.178352 46.708804 184.063768 46.708804 C 180.345018 46.708804 177.324184 47.396304 175.001267 48.776513 C 172.683559 50.151513 171.527309 51.937971 171.527309 54.135888 C 171.527309 55.979638 172.256476 57.464013 173.709601 58.589013 C 175.178351 59.698389 177.126268 60.25568 179.568976 60.25568 C 182.048143 60.25568 184.33981 59.776514 186.438768 58.823388 C 188.537727 57.865055 190.761685 56.281722 193.115852 54.078596 Z M 225.756479 41.656721 L 239.246063 59.115055 L 240.449188 59.115055 C 241.72523 59.115055 242.365855 59.578597 242.365855 60.50568 C 242.365855 61.500472 241.72523 62.000472 240.449188 62.000472 L 231.147104 62.000472 C 229.865854 62.000472 229.230438 61.500472 229.230438 60.50568 C 229.230438 59.578597 229.865854 59.115055 231.147104 59.115055 L 235.464813 59.115055 L 223.839812 44.000471 L 212.31377 59.115055 L 216.808562 59.115055 C 218.089812 59.115055 218.725229 59.578597 218.725229 60.50568 C 218.725229 61.500472 218.089812 62.000472 216.808562 62.000472 L 207.579395 62.000472 C 206.303353 62.000472 205.662728 61.500472 205.662728 60.50568 C 205.662728 59.578597 206.303353 59.115055 207.579395 59.115055 L 208.78252 59.115055 L 222.037729 41.656721 L 209.365853 25.167136 L 208.355436 25.167136 C 207.079394 25.167136 206.438769 24.667136 206.438769 23.672344 C 206.438769 22.745261 207.079394 22.281719 208.355436 22.281719 L 216.089812 22.281719 C 217.371062 22.281719 218.011687 22.745261 218.011687 23.672344 C 218.011687 24.667136 217.371062 25.167136 216.089812 25.167136 L 213.089812 25.167136 L 224.011687 39.385887 L 234.808563 25.167136 L 231.631479 25.167136 C 230.350229 25.167136 229.709604 24.667136 229.709604 23.672344 C 229.709604 22.745261 230.350229 22.281719 231.631479 22.281719 L 239.438772 22.281719 C 240.714813 22.281719 241.355438 22.745261 241.355438 23.672344 C 241.355438 24.667136 240.714813 25.167136 239.438772 25.167136 L 238.41273 25.167136 Z M 225.756479 41.656721 " stroke="#000000" stroke-width="4.499962" stroke-opacity="1" stroke-miterlimit="4"/><g fill="#ffffff" fill-opacity="1"><g transform="translate(97.971714, 273.937146)"><g><path d="M 26.5 0 L 23.765625 0 L 7.609375 -26.6875 L 7.609375 -2.15625 L 11.609375 -2.15625 C 12.535156 -2.15625 13 -1.8125 13 -1.125 C 13 -0.375 12.535156 0 11.609375 0 L 3.640625 0 C 2.679688 0 2.203125 -0.375 2.203125 -1.125 C 2.203125 -1.8125 2.679688 -2.15625 3.640625 -2.15625 L 5.4375 -2.15625 L 5.4375 -27.625 L 2.609375 -27.625 C 1.648438 -27.625 1.171875 -28 1.171875 -28.75 C 1.171875 -29.445312 1.648438 -29.796875 2.609375 -29.796875 L 8.1875 -29.796875 L 24.34375 -3.109375 L 24.34375 -27.625 L 20.4375 -27.625 C 19.4375 -27.625 18.9375 -28 18.9375 -28.75 C 18.9375 -29.445312 19.4375 -29.796875 20.4375 -29.796875 L 28.3125 -29.796875 C 29.269531 -29.796875 29.75 -29.445312 29.75 -28.75 C 29.75 -28 29.269531 -27.625 28.3125 -27.625 L 26.5 -27.625 Z M 26.5 0 "/></g></g></g><g fill="#ffffff" fill-opacity="1"><g transform="translate(127.438506, 273.937146)"><g><path d="M 27.546875 -10.53125 L 5.484375 -10.53125 C 5.878906 -7.769531 7.050781 -5.539062 9 -3.84375 C 10.945312 -2.15625 13.347656 -1.3125 16.203125 -1.3125 C 17.847656 -1.3125 19.539062 -1.578125 21.28125 -2.109375 C 23.019531 -2.648438 24.414062 -3.34375 25.46875 -4.1875 C 25.800781 -4.425781 26.070312 -4.546875 26.28125 -4.546875 C 26.550781 -4.546875 26.789062 -4.445312 27 -4.25 C 27.207031 -4.050781 27.3125 -3.804688 27.3125 -3.515625 C 27.3125 -2.578125 26.050781 -1.613281 23.53125 -0.625 C 21.007812 0.363281 18.550781 0.859375 16.15625 0.859375 C 12.582031 0.859375 9.550781 -0.332031 7.0625 -2.71875 C 4.570312 -5.101562 3.328125 -8.019531 3.328125 -11.46875 C 3.328125 -14.65625 4.488281 -17.34375 6.8125 -19.53125 C 9.144531 -21.71875 12.003906 -22.8125 15.390625 -22.8125 C 18.960938 -22.8125 21.878906 -21.6875 24.140625 -19.4375 C 26.410156 -17.1875 27.546875 -14.21875 27.546875 -10.53125 Z M 5.484375 -12.6875 L 25.296875 -12.6875 C 24.867188 -15.09375 23.75 -17.019531 21.9375 -18.46875 C 20.125 -19.925781 17.941406 -20.65625 15.390625 -20.65625 C 12.835938 -20.65625 10.664062 -19.929688 8.875 -18.484375 C 7.09375 -17.046875 5.960938 -15.113281 5.484375 -12.6875 Z M 5.484375 -12.6875 "/></g></g></g><g fill="#ffffff" fill-opacity="1"><g transform="translate(156.905299, 273.937146)"><g><path d="M 23.21875 0 L 23.21875 -3.515625 C 20.3125 -0.597656 17.101562 0.859375 13.59375 0.859375 C 11.457031 0.859375 9.75 0.226562 8.46875 -1.03125 C 7.195312 -2.289062 6.5625 -3.972656 6.5625 -6.078125 L 6.5625 -19.890625 L 3.6875 -19.890625 C 2.757812 -19.890625 2.296875 -20.265625 2.296875 -21.015625 C 2.296875 -21.703125 2.757812 -22.046875 3.6875 -22.046875 L 8.734375 -22.046875 L 8.734375 -6.078125 C 8.734375 -4.753906 9.195312 -3.628906 10.125 -2.703125 C 11.050781 -1.773438 12.191406 -1.3125 13.546875 -1.3125 C 17.085938 -1.3125 20.3125 -2.898438 23.21875 -6.078125 L 23.21875 -19.890625 L 19.3125 -19.890625 C 18.3125 -19.890625 17.8125 -20.265625 17.8125 -21.015625 C 17.8125 -21.703125 18.3125 -22.046875 19.3125 -22.046875 L 25.375 -22.046875 L 25.375 -2.15625 L 27.1875 -2.15625 C 28.144531 -2.15625 28.625 -1.8125 28.625 -1.125 C 28.625 -0.375 28.144531 0 27.1875 0 Z M 23.21875 0 "/></g></g></g><g fill="#ffffff" fill-opacity="1"><g transform="translate(186.372088, 273.937146)"><g><path d="M 27.546875 -18.21875 C 27.359375 -18.21875 26.800781 -18.585938 25.875 -19.328125 C 24.945312 -20.066406 24.046875 -20.4375 23.171875 -20.4375 C 21.972656 -20.4375 20.726562 -20.003906 19.4375 -19.140625 C 18.144531 -18.285156 16.046875 -16.523438 13.140625 -13.859375 L 13.140625 -2.15625 L 22.59375 -2.15625 C 23.550781 -2.15625 24.03125 -1.796875 24.03125 -1.078125 C 24.03125 -0.359375 23.550781 0 22.59375 0 L 5.890625 0 C 4.929688 0 4.453125 -0.375 4.453125 -1.125 C 4.453125 -1.8125 4.929688 -2.15625 5.890625 -2.15625 L 10.9375 -2.15625 L 10.9375 -19.890625 L 6.96875 -19.890625 C 6.007812 -19.890625 5.53125 -20.265625 5.53125 -21.015625 C 5.53125 -21.703125 6.007812 -22.046875 6.96875 -22.046875 L 13.140625 -22.046875 L 13.140625 -16.65625 C 15.566406 -18.875 17.535156 -20.414062 19.046875 -21.28125 C 20.566406 -22.15625 22.003906 -22.59375 23.359375 -22.59375 C 24.734375 -22.59375 25.953125 -22.171875 27.015625 -21.328125 C 28.085938 -20.484375 28.625 -19.8125 28.625 -19.3125 C 28.625 -18.976562 28.515625 -18.710938 28.296875 -18.515625 C 28.085938 -18.316406 27.835938 -18.21875 27.546875 -18.21875 Z M 27.546875 -18.21875 "/></g></g></g><g fill="#ffffff" fill-opacity="1"><g transform="translate(215.838883, 273.937146)"><g><path d="M 6.609375 -20.03125 C 6.609375 -20.78125 7.804688 -21.429688 10.203125 -21.984375 C 12.609375 -22.535156 14.488281 -22.8125 15.84375 -22.8125 C 18.300781 -22.8125 20.332031 -22.195312 21.9375 -20.96875 C 23.539062 -19.738281 24.34375 -18.179688 24.34375 -16.296875 L 24.34375 -2.15625 L 27.1875 -2.15625 C 28.144531 -2.15625 28.625 -1.8125 28.625 -1.125 C 28.625 -0.375 28.144531 0 27.1875 0 L 22.1875 0 L 22.1875 -3.5625 C 19.03125 -0.613281 15.65625 0.859375 12.0625 0.859375 C 9.601562 0.859375 7.613281 0.226562 6.09375 -1.03125 C 4.582031 -2.289062 3.828125 -3.925781 3.828125 -5.9375 C 3.828125 -8.21875 4.859375 -10.070312 6.921875 -11.5 C 8.992188 -12.925781 11.679688 -13.640625 14.984375 -13.640625 C 17.140625 -13.640625 19.539062 -13.28125 22.1875 -12.5625 L 22.1875 -16.296875 C 22.1875 -17.578125 21.582031 -18.625 20.375 -19.4375 C 19.175781 -20.25 17.601562 -20.65625 15.65625 -20.65625 C 14.039062 -20.65625 12.363281 -20.367188 10.625 -19.796875 C 8.882812 -19.222656 7.878906 -18.9375 7.609375 -18.9375 C 7.367188 -18.9375 7.140625 -19.039062 6.921875 -19.25 C 6.710938 -19.46875 6.609375 -19.726562 6.609375 -20.03125 Z M 22.1875 -5.9375 L 22.1875 -10.703125 C 20 -11.210938 17.734375 -11.46875 15.390625 -11.46875 C 12.597656 -11.46875 10.332031 -10.953125 8.59375 -9.921875 C 6.851562 -8.890625 5.984375 -7.546875 5.984375 -5.890625 C 5.984375 -4.515625 6.53125 -3.40625 7.625 -2.5625 C 8.71875 -1.726562 10.179688 -1.3125 12.015625 -1.3125 C 13.878906 -1.3125 15.597656 -1.671875 17.171875 -2.390625 C 18.742188 -3.109375 20.414062 -4.289062 22.1875 -5.9375 Z M 22.1875 -5.9375 "/></g></g></g><g fill="#ffffff" fill-opacity="1"><g transform="translate(245.305679, 273.937146)"><g><path d="M 17.1875 -15.25 L 27.3125 -2.15625 L 28.21875 -2.15625 C 29.175781 -2.15625 29.65625 -1.8125 29.65625 -1.125 C 29.65625 -0.375 29.175781 0 28.21875 0 L 21.234375 0 C 20.273438 0 19.796875 -0.375 19.796875 -1.125 C 19.796875 -1.8125 20.273438 -2.15625 21.234375 -2.15625 L 24.484375 -2.15625 L 15.75 -13.5 L 7.109375 -2.15625 L 10.484375 -2.15625 C 11.441406 -2.15625 11.921875 -1.8125 11.921875 -1.125 C 11.921875 -0.375 11.441406 0 10.484375 0 L 3.5625 0 C 2.59375 0 2.109375 -0.375 2.109375 -1.125 C 2.109375 -1.8125 2.59375 -2.15625 3.5625 -2.15625 L 4.453125 -2.15625 L 14.40625 -15.25 L 4.90625 -27.625 L 4.140625 -27.625 C 3.179688 -27.625 2.703125 -28 2.703125 -28.75 C 2.703125 -29.445312 3.179688 -29.796875 4.140625 -29.796875 L 9.9375 -29.796875 C 10.90625 -29.796875 11.390625 -29.445312 11.390625 -28.75 C 11.390625 -28 10.90625 -27.625 9.9375 -27.625 L 7.6875 -27.625 L 15.890625 -16.96875 L 23.984375 -27.625 L 21.59375 -27.625 C 20.632812 -27.625 20.15625 -28 20.15625 -28.75 C 20.15625 -29.445312 20.632812 -29.796875 21.59375 -29.796875 L 27.453125 -29.796875 C 28.410156 -29.796875 28.890625 -29.445312 28.890625 -28.75 C 28.890625 -28 28.410156 -27.625 27.453125 -27.625 L 26.6875 -27.625 Z M 17.1875 -15.25 "/></g></g></g></svg>